# xmcd
#
# Track frame offsets:
#	150
#	16520
#	41300
#	65212
#	81875
#	98379
#	125202
#	135347
#	154120
#	179900
#	199397
#	225597
#	243497
#	264792
#	285105
#	299475
#	311660
#	330340
#
# Disc length: 4682 seconds
#
# Revision: 5
# Processed by: cddbd v1.5.2PL0 Copyright (c) Steve Scherf et al.
# Submitted via: audiograbber 1.83.01
#
DISCID=f4124812
DTITLE=Compilation Slows - Au coeur des slows ( Volume 4 ) International
DYEAR=1996
DGENRE=slow
TTITLE0=01 - The Righteous Brothers - Unchained melody
TTITLE1=02 - Zucchero Fornaciari  - Il volo 
TTITLE2=03 - Annie Lenox - A whiter shade of pale
TTITLE3=04 -  Sade - Your love is king 
TTITLE4=05 - Boyzone - Love me for a reason 
TTITLE5=06 - Spandau Ballet - Through the barricades 
TTITLE6=07 -  Ray Charles and Dee Dee Bridgewater - Precious thing 
TTITLE7=08 - Will to Power - Baby I love your way 
TTITLE8=09 -  Peaches and Herb - Reunited 
TTITLE9=10 - The Commodores - Easy 
TTITLE10=11 -  George Michael and Elton John - Don't let the sun go down on me 
TTITLE11=12 - Laura Pausini - La solitudine 
TTITLE12=13 - Janis Ian  - At seventeen
TTITLE13=14 - Murray Head - Say it ain't so Joe 
TTITLE14=15 - Pavlov's dog - Julia 
TTITLE15=16 - Jimmy Cliff  - Many rivers to cross 
TTITLE16=17 - New Velvet Glove  - Sweet was my rose 
TTITLE17=18 - Emerson Lake and Palmer  - Lucky man 
EXTD=YEAR: 1996 avec correction
EXTT0=The righteous brothers\n
EXTT1=Zucchero Fornaciari\n
EXTT2=Annie Lenox\n
EXTT3=Sade\n
EXTT4=Boyzone\n
EXTT5=Spandau Ballet\n
EXTT6=Ray Charles and Dee Dee Bridgewater\n
EXTT7=Will to power\n
EXTT8=Peaches and Herb\n
EXTT9=The Commodores\n
EXTT10=George Michael and Elton John\n
EXTT11=Laura Pausini\n
EXTT12=Janis Ian\n
EXTT13=Murray Head\n
EXTT14=Pavlov's dog\n
EXTT15=Jimmy Cliff\n
EXTT16=New Velvet Glove\n
EXTT17=Emerson Lake and Palmer\n
PLAYORDER=
